<svg id="Grupo_60" data-name="Grupo 60" xmlns="http://www.w3.org/2000/svg"
  xmlns:xlink="http://www.w3.org/1999/xlink" width="147.014" height="86.252"
  viewBox="0 0 147.014 86.252">
  <defs>
    <clipPath id="clip-path">
      <rect id="Rectángulo_1510" data-name="Rectángulo 1510" width="147.014" height="86.252"
        fill="none" />
    </clipPath>
  </defs>
  <g id="Grupo_59" data-name="Grupo 59" clip-path="url(#clip-path)">
    <path id="Trazado_10" data-name="Trazado 10"
      d="M16.647,156.186c-5.128-10.346,15.279-30.907,45.58-45.925q.826-.41,1.651-.807a166.131,166.131,0,0,0-17.789,7.589C15.789,132.061-4.467,152.927.847,163.649s34.186,7.239,64.486-7.779c3.981-1.973,7.787-4.048,11.386-6.187-28.76,13.372-55.175,16.384-60.072,6.5"
      transform="translate(0 -83.619)" fill="#358e9c" />
    <path id="Trazado_11" data-name="Trazado 11"
      d="M380.877,11.509c-6.707-8.279-31.443-4.886-55.251,7.58q-.65.34-1.288.685a111.678,111.678,0,0,1,12.954-7.907C361.1-.6,386.034-3.748,392.984,4.833s-6.715,25.642-30.522,38.108c-3.128,1.638-6.275,3.113-9.4,4.424,21.862-12.254,34.219-27.948,27.814-35.855"
      transform="translate(-247.781 0)" fill="#35629c" />
    <path id="Trazado_12" data-name="Trazado 12"
      d="M323.167,78.838c4.436,5.476,20.8,3.231,36.543-5.014q.43-.225.852-.453a73.9,73.9,0,0,1-8.568,5.229c-15.746,8.245-32.238,10.328-36.835,4.653s4.441-16.959,20.188-25.2c2.069-1.083,4.151-2.059,6.216-2.926-14.46,8.105-22.632,18.485-18.4,23.715"
      transform="translate(-239.854 -42.112)" fill="#35629c" />
    <path id="Trazado_13" data-name="Trazado 13"
      d="M149,208.855h2.7l3.9,14.535h-2.436l-.912-3.642h-4.262l-.9,3.642h-2.295Zm2.777,9L150.11,211.2l-1.651,6.655Z"
      transform="translate(-110.615 -159.557)" fill="#1a2737" />
    <path id="Trazado_14" data-name="Trazado 14"
      d="M198.249,208.856h2.834l4.779,10.478V208.856h2.012v14.535h-2.247l-5.367-11.639v11.639h-2.012Z"
      transform="translate(-151.454 -159.558)" fill="#1a2737" />
    <path id="Trazado_15" data-name="Trazado 15"
      d="M252.337,208.855h3.273a7.437,7.437,0,0,1,3.8.841,5.273,5.273,0,0,1,2.153,2.5,9.06,9.06,0,0,1,.73,3.684,10.309,10.309,0,0,1-.656,3.8,6.094,6.094,0,0,1-2,2.689,6.26,6.26,0,0,1-3.843,1.022h-3.454Zm2.407,1.928v10.681h1a3.377,3.377,0,0,0,3.052-1.454,7.009,7.009,0,0,0,.95-3.881q0-5.346-4-5.346Z"
      transform="translate(-192.775 -159.557)" fill="#1a2737" />
    <path id="Trazado_16" data-name="Trazado 16"
      d="M306.11,208.856h4.376a4.929,4.929,0,0,1,3.5,1.076,4.065,4.065,0,0,1,1.129,3.088,3.915,3.915,0,0,1-2.226,3.8l2.758,6.57h-2.61l-2.259-6.07h-2.265v6.07H306.11Zm2.407,1.864v4.738h1.842a2.256,2.256,0,0,0,1.816-.681,2.649,2.649,0,0,0,.58-1.778q0-2.279-2.375-2.279Z"
      transform="translate(-233.856 -159.558)" fill="#1a2737" />
    <path id="Trazado_17" data-name="Trazado 17"
      d="M364.33,215.257A9.835,9.835,0,0,1,363,220.89a4.42,4.42,0,0,1-3.865,1.906,4.489,4.489,0,0,1-3.9-1.9,12.43,12.43,0,0,1-.011-11.256,4.905,4.905,0,0,1,7.763-.011,9.748,9.748,0,0,1,1.342,5.628m-2.524.005a11.161,11.161,0,0,0-.6-4.077,2.226,2.226,0,0,0-4.2.005,11.261,11.261,0,0,0-.6,4.072,11.48,11.48,0,0,0,.586,4.05,2.138,2.138,0,0,0,2.14,1.513,2.11,2.11,0,0,0,2.066-1.465,11.037,11.037,0,0,0,.607-4.1"
      transform="translate(-270.353 -158.697)" fill="#1a2737" />
    <path id="Trazado_18" data-name="Trazado 18"
      d="M409.507,208.856h3.569l2.9,10.478,2.975-10.478h3.419v14.535h-2.257V210.986l-3.454,12.406H414.91l-3.39-12.416v12.416h-2.012Z"
      transform="translate(-312.847 -159.558)" fill="#1a2737" />
    <path id="Trazado_19" data-name="Trazado 19"
      d="M477.671,208.856H486v1.928h-5.921v4.153h4.643v1.938h-4.643v4.547h6.017v1.97h-8.423Z"
      transform="translate(-364.922 -159.558)" fill="#1a2737" />
    <path id="Trazado_20" data-name="Trazado 20"
      d="M522.016,208.855h3.272a7.437,7.437,0,0,1,3.8.841,5.274,5.274,0,0,1,2.153,2.5,9.062,9.062,0,0,1,.73,3.684,10.309,10.309,0,0,1-.656,3.8,6.1,6.1,0,0,1-2,2.689,6.261,6.261,0,0,1-3.843,1.022h-3.454Zm2.406,1.928v10.681h1a3.376,3.376,0,0,0,3.052-1.454,7.012,7.012,0,0,0,.95-3.881q0-5.346-4-5.346Z"
      transform="translate(-398.8 -159.557)" fill="#1a2737" />
    <path id="Trazado_21" data-name="Trazado 21"
      d="M572.417,208.855h2.7l3.9,14.535H576.58l-.912-3.642h-4.262l-.9,3.642h-2.3Zm2.777,9-1.667-6.655-1.651,6.655Z"
      transform="translate(-434.088 -159.557)" fill="#1a2737" />
  </g>
</svg>